<svg width="57" height="54" viewBox="0 0 57 54" fill="none" xmlns="http://www.w3.org/2000/svg">
<path d="M5.01401 0.290544L55.1571 24.133C55.6639 24.3736 56.0918 24.7519 56.3914 25.2242C56.691 25.6965 56.85 26.2435 56.85 26.8019C56.85 27.3603 56.691 27.9072 56.3914 28.3795C56.0918 28.8518 55.6639 29.2302 55.1571 29.4708L5.01401 53.3132C4.49997 53.558 3.92602 53.6508 3.36045 53.5806C2.79488 53.5104 2.2615 53.2802 1.82377 52.9173C1.38604 52.5544 1.06238 52.0741 0.891316 51.5335C0.720249 50.993 0.708971 50.415 0.858824 49.8683L5.87551 31.5836C5.93692 31.3595 6.06332 31.1584 6.23894 31.0052C6.41457 30.8521 6.63166 30.7537 6.86314 30.7224L31.1612 27.4407C31.2628 27.4264 31.3589 27.3861 31.4402 27.3239C31.5215 27.2618 31.5853 27.1797 31.6253 27.0858L31.6681 26.9391C31.6869 26.807 31.6602 26.6725 31.5924 26.5574C31.5245 26.4423 31.4196 26.3533 31.2945 26.305L31.1636 26.2695L6.88932 22.9878C6.65827 22.9561 6.44169 22.8575 6.26652 22.7044C6.09136 22.5513 5.96531 22.3504 5.90407 22.1266L0.858824 3.73785C0.708364 3.19097 0.719183 2.61262 0.889992 2.07169C1.0608 1.53076 1.3844 1.05003 1.82225 0.686775C2.2601 0.323519 2.79374 0.0930411 3.35962 0.022792C3.9255 -0.0474572 4.49976 0.0454836 5.01401 0.290544V0.290544Z" fill="black" fill-opacity="0.8"/>
</svg>
