<svg width="55" height="56" viewBox="0 0 55 56" fill="none" xmlns="http://www.w3.org/2000/svg">
<rect y="0.577332" width="54.8454" height="54.8454" rx="9.59794" fill="white"/>
<path d="M33.7957 17.8162L27.4226 24.1896C25.2984 22.0661 23.1735 19.9405 21.0489 17.8162C18.5912 15.3585 14.7815 19.1696 17.2372 21.628C19.3621 23.7509 21.4877 25.8768 23.6102 28.001C21.4867 30.1262 19.3624 32.2506 17.2372 34.3741C14.7815 36.8311 18.5915 40.6412 21.0489 38.1858C23.1731 36.0609 25.2981 33.9356 27.4223 31.8121L33.7953 38.1858C36.2531 40.6429 40.0638 36.8315 37.6071 34.3741C35.4822 32.2491 33.3579 30.1249 31.2323 28.0003C33.3576 25.8754 35.4818 23.7505 37.6071 21.6259C40.0641 19.1696 36.2534 15.3585 33.7953 17.8176" fill="#F56E22"/>
</svg>
